<?xml version="1.0" encoding="UTF-8"?>
<svg width="314px" height="64px" viewBox="0 0 314 64" version="1.1" xmlns="http://www.w3.org/2000/svg" xmlns:xlink="http://www.w3.org/1999/xlink">
    <!-- Generator: Sketch 48.2 (47327) - http://www.bohemiancoding.com/sketch -->
    <title>sprite_v2</title>
    <desc>Created with Sketch.</desc>
    <defs></defs>
    <g id="Artboard-3" stroke="none" stroke-width="1" fill="none" fill-rule="evenodd" transform="translate(-439.000000, -165.000000)">
        <g id="sprite_v2" transform="translate(439.000000, 165.000000)" fill="#FFFFFF" fill-rule="nonzero">
            <path d="M311.8,5 C311.8,4.2 311.7,3.2 311.7,2.2 L311.7,2 L311.5,2 C311.2,2.1 310,2.1 308.7,2.1 L304.8,2.1 C304,2.1 303.3,2.1 302.4,2 C302.2,2.1 302.2,2.3 302.2,2.4 C302.2,2.6 302.2,2.7 302.3,2.8 L302.7,2.9 C303.8,3 303.8,3.1 303.8,5.4 L303.8,13 C303.8,15.2 303.8,15.3 302.7,15.5 L302.1,15.6 C302,15.7 302,15.9 302,16.1 C302,16.3 302.1,16.4 302.2,16.4 C303.2,16.4 303.9,16.3 304.8,16.3 C305.6,16.3 306.4,16.3 307.6,16.4 C307.7,16.3 307.8,16.1 307.8,16 C307.8,15.8 307.8,15.7 307.7,15.6 L306.9,15.5 C305.8,15.4 305.8,15.3 305.8,13 L305.8,10 C305.8,9.6 305.8,9.6 306.3,9.6 L307.7,9.6 C308.4,9.6 309,9.6 309.3,9.7 C309.6,9.8 309.8,10 309.9,10.4 L310.1,11.3 C310.3,11.5 310.8,11.5 310.9,11.3 L310.9,11.2 L310.9,10.4 C310.9,10 310.8,9.6 310.8,9.2 C310.8,8.8 310.8,8.3 310.9,7.9 L310.9,7 C310.8,6.8 310.6,6.8 310.5,6.8 C310.3,6.8 310.2,6.9 310.1,7 L309.9,7.9 C309.8,8.4 309.6,8.5 309.5,8.5 C309.3,8.6 308.6,8.6 307.8,8.6 L306.4,8.6 C305.9,8.6 305.9,8.6 305.9,8.2 L305.9,3.8 C305.9,3.1 305.9,3.1 306.4,3.1 L307.7,3.1 C308.6,3.1 309.3,3.1 309.7,3.2 C310.6,3.4 310.9,4 311.1,5.1 L311.1,5.2 C311.2,5.3 311.3,5.3 311.4,5.3 C311.5,5.2 311.7,5.1 311.8,5 Z M297.7,9 C297.7,5.4 295.4,1.6 290.2,1.6 C285.8,1.6 282.6,4.9 282.6,9.2 C282.6,12.8 285.2,16.5 290.2,16.5 C294.5,16.5 297.7,13.3 297.7,9 Z M295.3,9.7 C295.3,14 292.7,15.6 290.5,15.6 C286.2,15.6 285,11.2 285,8.6 C285,4.2 287.6,2.7 289.9,2.7 C293.9,2.7 295.3,6.5 295.3,9.7 Z M278.1,45.5 C278.1,54.6 284.9,62.6 296.1,62.6 C305.8,62.6 313.6,55.2 313.6,45 C313.6,36.1 307.7,27.7 296.1,27.7 C285.7,27.7 278.1,35.4 278.1,45.5 Z M283.1,43.9 C283.1,32.9 289.9,29.3 295.2,29.3 C304.8,29.3 308.5,38.3 308.5,46.6 C308.5,56.5 302.7,61.1 296.7,61.1 C286.8,61.1 283.1,51.4 283.1,43.9 Z M272,2.8 C272.1,2.7 272.2,2.6 272.2,2.4 C272.2,2.2 272.1,2.1 272,2 L271.9,2 C270.4,2.1 269.5,2.1 267.9,2 C267.8,2.1 267.7,2.2 267.7,2.3 C267.7,2.5 267.7,2.6 267.8,2.8 L268.2,2.9 C268.6,3 268.9,3.1 268.9,3.1 C268.8,3.4 268.1,4.8 267.7,5.6 L267.6,5.8 C267.1,6.8 266.5,7.8 265.8,9.1 C265.3,8.1 264.7,7 264.2,5.9 L263.6,4.7 C263.4,4.4 263,3.3 263,3.2 C263,3.2 263.1,3.1 263.7,3 L264,2.9 C264.1,2.8 264.2,2.6 264.1,2.4 C264.1,2.3 264,2.2 263.9,2.1 C263.4,2.1 262.6,2.2 261.7,2.2 C260.7,2.2 260,2.2 259.3,2.1 C259.2,2.2 259.1,2.3 259.1,2.4 C259.1,2.6 259.1,2.7 259.2,2.9 L259.8,3 C260.4,3.1 260.6,3.1 261.3,4.5 L263.8,9.3 C264.4,10.4 264.5,10.7 264.5,11.8 L264.5,12.9 C264.5,15.2 264.4,15.3 263.4,15.4 L262.7,15.5 C262.6,15.6 262.6,15.8 262.6,16 C262.6,16.2 262.7,16.3 262.8,16.3 C263.9,16.3 264.7,16.2 265.5,16.2 C266.4,16.2 267.1,16.2 268.4,16.3 C268.5,16.2 268.6,16.1 268.6,16 C268.6,15.9 268.6,15.7 268.5,15.5 L267.6,15.4 C266.6,15.3 266.5,15.2 266.5,12.9 L266.5,11.8 C266.5,10.2 266.5,10.1 267.5,8.5 L268.8,6.2 L269.1,5.6 C269.9,4.2 270.5,3.1 271.4,3 L272,2.8 Z M264.6,28.5 C263.7,28.3 261.1,27.7 258.2,27.7 C250.6,27.7 245.6,30.1 242.2,33.6 C239.1,36.9 237.7,41.3 237.7,45.6 C237.7,50 239.3,54 242.3,57.1 C246.2,61 251.7,62.7 257.7,62.7 C260.4,62.7 264.1,62.1 266.7,61.4 C267.7,61.1 268.6,60.9 269.2,60.9 C269.4,60.7 269.4,60.4 269.3,60.3 C268.4,59.9 268.1,58.7 268.1,56.7 L268.1,53.9 C268.1,51.3 268.1,49.9 270.3,49.7 L271.1,49.6 C271.4,49.3 271.4,48.5 271,48.3 C269.3,48.4 267.6,48.5 265.7,48.5 C262.7,48.5 259.9,48.4 258.5,48.3 C258.1,48.5 258.1,49.4 258.5,49.6 L260.7,49.9 C263.8,50.3 264,50.6 264,54.8 L264,56.8 C264,58.4 263.7,59.3 263.5,59.7 C262.9,60.6 261.1,61.2 257.9,61.2 C247.8,61.2 242.8,53.6 242.8,43.9 C242.8,36.3 247.1,29.4 256.9,29.4 C262,29.4 265.8,31.1 267.2,36.6 C267.5,36.9 268.4,36.9 268.6,36.4 C268.1,33.4 267.8,30.7 267.8,29.1 C267.2,29 265.6,28.7 264.6,28.5 Z M256,1.7 L256,1.6 C255.9,1.4 255.7,1.4 255.6,1.4 L255.3,1.4 L255.3,1.5 C255,2 254.9,2 253.8,2 L245.1,2 C244.2,2 243.7,1.9 243.7,1.5 L243.7,1.4 C243.6,1.3 243.5,1.3 243.4,1.3 C243.3,1.3 243.2,1.3 243.1,1.4 L243,1.4 L243,1.5 C242.9,2.3 242.5,3.7 242.2,4.6 L242.2,4.8 C242.3,5.1 242.8,5.2 243,5 C243.2,4.5 243.4,4.1 243.9,3.6 C244.4,3.2 245.4,3.1 246.4,3.1 L247.6,3.1 C248.1,3.1 248.1,3.1 248.1,3.6 L248.1,13 C248.1,15.3 248,15.4 247,15.5 L246.2,15.6 L246.1,15.6 C246,15.7 245.9,15.8 245.9,16 C245.9,16.1 246,16.3 246.1,16.4 C247.4,16.4 248.2,16.3 249,16.3 C249.8,16.3 250.5,16.3 251.8,16.4 C252,16.3 252,16.1 252,16 C252,15.8 252,15.7 251.9,15.6 L251.2,15.5 C250.2,15.4 250.1,15.3 250.1,13 L250.1,3.6 L250.1,3.2 L252,3.2 C253.1,3.2 253.9,3.4 254.3,3.7 C254.5,3.8 254.7,4.4 254.8,5.1 C254.9,5.2 255,5.3 255.2,5.3 C255.4,5.3 255.6,5.2 255.6,5.1 C255.7,4.2 255.8,2.5 256,1.7 Z M236.9,12.9 L236.9,5.4 C236.9,3.1 237,3 238,2.9 L238.6,2.9 C238.7,2.8 238.8,2.7 238.7,2.5 C238.7,2.4 238.7,2.2 238.5,2.1 C237.5,2.1 236.8,2.2 235.9,2.2 C235,2.2 234.3,2.2 233.3,2.1 C233.1,2.2 233.1,2.4 233.1,2.5 C233.1,2.7 233.1,2.8 233.2,2.9 L233.8,2.9 C234.9,3 234.9,3.1 234.9,5.4 L234.9,12.9 C234.9,15.2 234.8,15.3 233.8,15.4 L233.2,15.5 C233.1,15.6 233.1,15.8 233.1,16 C233.1,16.2 233.2,16.3 233.3,16.3 C234.4,16.3 235.1,16.2 235.9,16.2 C236.7,16.2 237.4,16.2 238.5,16.3 C238.7,16.2 238.7,16 238.7,15.9 C238.7,15.7 238.7,15.6 238.6,15.5 L238,15.4 C236.9,15.2 236.9,15.1 236.9,12.9 Z M233.4,60.6 C231.2,60.3 230.6,59.6 229.1,55.3 L222.2,35 C221.4,32.8 220.6,30.5 220,28.2 C219.9,27.8 219.5,27.7 219.2,27.7 C218.6,28.4 217.8,29.3 216.6,29.6 C216.8,30.4 216.4,31.4 215.7,33.2 L210.6,46.8 C208.5,52.5 207.1,55.7 206.2,58 C205.5,59.8 204.4,60.4 203.2,60.5 L201.5,60.7 C201.2,61 201.3,61.8 201.6,62 C203,61.9 204.8,61.8 206.4,61.8 C208.8,61.9 210.3,61.9 211.6,62 C212.1,61.8 212.1,61 211.7,60.7 L210,60.5 C208.8,60.4 208.5,60.1 208.5,59.5 C208.5,58.9 208.9,57.6 209.6,55.3 L211.4,50 C211.8,48.9 212.1,48.8 213.3,48.8 L220.9,48.8 C222.4,48.8 222.6,49 223,50.1 L225.2,57 C225.6,58.2 225.9,59.1 225.9,59.7 C225.9,60.2 225.2,60.5 224.1,60.6 L222.6,60.8 C222.2,61.1 222.3,61.9 222.7,62.1 C224.2,62 226.1,61.9 228.5,61.9 C230.8,61.9 232.5,62 234.6,62.1 C234.9,61.9 235,61.1 234.6,60.8 L233.4,60.6 Z M220.4,46.8 L214.2,46.8 C212.8,46.8 212.7,46.7 213.1,45.6 L216.3,36.8 C216.9,35.3 217.4,34.1 217.5,33.8 L217.6,33.8 C217.9,34.4 218.4,35.8 218.8,37 L221.5,45.2 C222,46.6 221.9,46.8 220.4,46.8 Z M222.4,4.8 C222.4,4 222.7,2.6 224.7,2.6 C226.6,2.6 227.1,3.8 227.4,4.9 L227.4,5 C227.5,5.1 227.6,5.1 227.7,5.1 C227.9,5.1 228.1,5 228.2,4.9 C228.2,4 228,2.8 227.8,2.3 L227.8,2.2 L227.7,2.2 C227.6,2.2 227.3,2.2 227,2.1 C226.5,2 225.7,1.8 225,1.8 C222.3,1.8 220.5,3.3 220.5,5.6 C220.5,7.5 222,8.8 222.8,9.3 L224.8,10.6 C226.2,11.5 226.4,12.5 226.4,13.4 C226.4,14.5 225.6,15.7 223.9,15.7 C221.8,15.7 220.8,14.1 220.4,12.7 C220.3,12.6 220.2,12.6 220.1,12.6 C220,12.6 219.8,12.7 219.7,12.8 L219.7,12.9 C219.7,13.8 220,15.4 220.3,15.9 C220.7,16.1 221.9,16.7 223.7,16.7 C226.5,16.7 228.3,15.1 228.3,12.6 C228.3,10.9 227.4,9.6 225.6,8.4 L223.9,7.4 C223.5,6.9 222.4,6 222.4,4.8 Z M217.1,16.3 C217.2,16.2 217.2,16.1 217.2,16 C217.2,15.9 217.1,15.8 217,15.8 C216.5,15.8 216,15.6 215.6,15.3 C214.2,14.1 213,12.3 211.4,9.8 C211.3,9.6 211.3,9.5 211.3,9.5 C212,9.2 214,8.2 214,5.9 C214,4.1 213,3.3 212.2,2.8 C211.1,2.2 209.8,2.1 208.6,2.1 C206.7,2.1 205.2,2.2 203.9,2.3 L203.8,2.3 C203.7,2.4 203.6,2.5 203.6,2.7 C203.6,2.9 203.6,3.1 203.8,3.1 L204.5,3.2 C205.2,3.3 205.3,3.4 205.3,5.5 L205.3,13 C205.3,15.2 205.3,15.3 204.2,15.5 L203.6,15.6 C203.5,15.7 203.5,15.9 203.5,16.1 C203.5,16.2 203.6,16.3 203.7,16.4 C204.6,16.4 205.4,16.3 206.3,16.3 C207.2,16.3 207.9,16.3 208.8,16.4 C209,16.3 209,16.1 209,16 C209,15.8 209,15.7 208.9,15.6 L208.4,15.5 C207.3,15.3 207.3,15.3 207.3,13 L207.3,10.4 C207.3,10.1 207.3,10.1 208.1,10.1 C208.9,10.1 209.2,10.3 209.5,10.7 C209.8,11.2 210.2,11.7 210.5,12.3 C210.9,12.9 211.2,13.5 211.5,13.9 C212.9,16 214,16.6 216,16.6 C216.5,16.5 216.9,16.4 217.1,16.3 Z M210.8,8.5 C210.2,9 209.4,9 208.7,9 C207.8,9 207.5,9 207.4,8.9 L207.4,3.4 C207.4,2.9 207.4,2.9 208.6,2.9 C211,2.9 211.8,4.6 211.8,6 C211.8,7.2 211.5,7.9 210.8,8.5 Z M200,13.2 C199.9,12.9 199.7,12.8 199.5,12.8 C199.4,12.8 199.3,12.8 199.2,12.9 L199.1,12.9 C198.5,14.1 198,14.7 197.7,14.9 C197.3,15.1 196.6,15.2 195.1,15.2 C193.3,15.2 192.9,15 192.7,14.8 C192.4,14.5 192.3,13.8 192.3,12.7 L192.3,9.7 C192.3,9.3 192.3,9.3 192.8,9.3 L194,9.3 C194.7,9.3 195.3,9.3 195.6,9.4 C195.9,9.5 196,9.7 196.1,10.1 L196.3,10.9 L196.3,11 C196.4,11.1 196.5,11.2 196.7,11.2 C196.9,11.2 197,11.1 197.1,11 L197.1,10.2 C197.1,9.8 197,9.4 197,9 C197,8.6 197,8.1 197.1,7.7 L197.1,6.8 C197,6.7 196.9,6.6 196.7,6.6 C196.5,6.6 196.4,6.7 196.3,6.8 L196.1,7.7 C196,8.2 195.9,8.2 195.7,8.3 C195.5,8.4 194.8,8.4 194,8.4 L192.8,8.4 C192.3,8.4 192.3,8.4 192.3,8 L192.3,3.8 C192.3,3.1 192.3,3.1 192.8,3.1 L194.3,3.1 C195.2,3.1 195.9,3.1 196.3,3.2 C197.3,3.4 197.5,4 197.7,5 L197.7,5.2 C197.8,5.3 197.9,5.3 198,5.3 C198.1,5.3 198.3,5.2 198.4,5.1 L198.4,4.7 C198.3,3.5 198.2,2.4 198.1,2.1 L198.1,2 L198,2 C197.8,2.1 196.5,2.1 195.2,2.1 L191.2,2.1 C190.4,2.1 189.7,2.1 188.7,2 C188.5,2.1 188.5,2.3 188.5,2.4 C188.5,2.6 188.5,2.7 188.6,2.8 L189,2.9 C190.1,3 190.1,3.2 190.1,5.4 L190.1,13 C190.1,15.3 190,15.4 188.9,15.5 L188.1,15.6 C188,15.7 188,15.9 188,16.1 C188,16.3 188.1,16.4 188.2,16.4 C189.4,16.4 190.1,16.3 191.1,16.3 L193,16.3 C194.8,16.3 196.7,16.3 198.6,16.4 L198.7,16.4 L198.7,16.3 C199.3,15.6 199.8,14 200,13.2 Z M185.5,2.7 C185.6,2.6 185.6,2.4 185.6,2.3 C185.6,2.1 185.5,2 185.4,2 C184.7,2 184,2.1 183.4,2.1 C182.6,2.1 181.8,2.1 181.2,2 L181.1,2 C181,2.1 180.9,2.2 180.9,2.4 C180.9,2.6 180.9,2.7 181,2.8 L181.4,2.9 C182.1,3 182.2,3.1 182.2,3.1 C182.2,3.2 182.2,3.4 182,3.9 C181.6,4.8 180.6,7.2 180,8.6 C179.8,9 179.6,9.4 179.4,9.9 C179,10.8 178.5,12 178.1,12.9 C177.1,10.6 176.2,8.3 175.3,6 C174.7,4.5 174.3,3.4 174.3,3.1 C174.3,3 174.5,2.9 175.1,2.9 L175.5,2.8 C175.6,2.7 175.7,2.6 175.6,2.4 C175.6,2.2 175.5,2.1 175.4,2 L175.3,2 C174.4,2 173.6,2.1 172.8,2.1 C171.9,2.1 171.3,2.1 170.6,2 L170.5,2 C170.4,2.1 170.3,2.2 170.3,2.4 C170.3,2.6 170.3,2.7 170.5,2.8 L170.9,2.9 C171.7,3 172,3.4 172.5,4.5 L176.2,13.6 C176.6,14.7 177,15.6 177.2,16.4 L177.2,16.5 L177.3,16.5 C177.4,16.6 177.5,16.6 177.7,16.6 C177.8,16.6 177.9,16.6 178,16.5 L178.1,16.5 C178.5,15.4 179.5,12.9 180.3,11 L181.4,8.4 C182.4,6.2 183.2,4.5 183.7,3.6 C184,3.2 184.2,3 184.7,2.9 L185.5,2.7 Z M171.8,32 C168,35 165.4,39.8 165.4,45.4 C165.4,51.9 168.5,56.5 172.6,59.3 C176.3,61.8 180.6,62.7 185.2,62.7 C188.4,62.7 192.1,61.9 193.2,61.5 C193.8,61.3 194.4,61.1 195,61 C195.8,60 197.1,56.7 197.4,54.1 C197.2,53.7 196.4,53.6 196.1,53.9 C194.9,56.9 192.1,61.1 185.6,61.1 C177.3,61.1 170.6,55.2 170.6,44.7 C170.6,34.3 177.2,29.4 184.9,29.4 C192.2,29.4 194.5,33.3 195.2,36.8 C195.6,37.1 196.3,37.1 196.6,36.7 C196.2,33.6 196,30.4 195.9,29.3 C195.4,29.4 195.1,29.2 194.5,29.1 C192.1,28.4 188.3,27.9 185.6,27.9 C180.2,27.7 175.5,29.1 171.8,32 Z M165.4,12.9 L165.4,5.4 C165.4,3.1 165.5,3 166.5,2.9 L167.1,2.9 C167.2,2.8 167.3,2.7 167.2,2.5 C167.2,2.4 167.2,2.2 167,2.1 C166,2.1 165.3,2.2 164.4,2.2 C163.5,2.2 162.8,2.2 161.8,2.1 C161.6,2.2 161.6,2.4 161.6,2.5 C161.6,2.7 161.6,2.8 161.7,2.9 L162.3,2.9 C163.4,3 163.4,3.2 163.4,5.4 L163.4,12.9 C163.4,15.2 163.3,15.3 162.3,15.4 L161.7,15.5 C161.6,15.6 161.6,15.8 161.6,16 C161.6,16.2 161.7,16.3 161.8,16.3 C162.9,16.3 163.6,16.2 164.4,16.2 C165.2,16.2 166,16.2 167,16.3 C167.2,16.2 167.2,16 167.2,15.9 C167.2,15.7 167.2,15.6 167.1,15.5 L166.5,15.4 C165.4,15.2 165.4,15.1 165.4,12.9 Z M154.8,54.2 L154.8,36.3 C154.8,31 154.9,30.1 157.9,29.8 L159.2,29.7 C159.5,29.5 159.4,28.6 159.1,28.4 C156.6,28.5 154.9,28.6 152.8,28.6 C150.7,28.6 149,28.5 146.4,28.4 C146.1,28.6 146,29.5 146.3,29.7 L147.6,29.8 C150.6,30.1 150.7,30.9 150.7,36.3 L150.7,54.2 C150.7,59.5 150.6,60.2 147.6,60.6 L146.3,60.8 C146,61.1 146.1,61.9 146.4,62.1 C148.9,62 150.6,61.9 152.8,61.9 C154.8,61.9 156.5,62 159.1,62.1 C159.4,61.9 159.5,61 159.2,60.8 L157.9,60.6 C154.9,60.2 154.8,59.5 154.8,54.2 Z M157.4,2.7 C157.5,2.6 157.6,2.4 157.5,2.3 C157.5,2.1 157.4,2 157.3,2 L157.2,2 C156.5,2 156,2.1 155,2.1 C154.3,2.1 153.6,2.1 152.5,2 C152.4,2 152.3,2.2 152.3,2.3 C152.3,2.5 152.3,2.7 152.4,2.8 L152.8,2.9 C153.5,3 153.9,3.1 154,3.2 C154.3,3.6 154.4,5.2 154.4,7.5 L154.4,12.6 C153.7,11.8 152.9,11 152,9.9 L149.1,6.6 C147,4.3 145.8,2.7 145.6,2 L145.6,1.9 L145.5,1.9 C145.2,1.9 144.9,2 144.6,2 C144.2,2 143.1,2 142.2,1.9 C142.1,2 142,2.1 142,2.2 C142,2.4 142,2.6 142.1,2.7 L142.5,2.8 C143.1,2.9 143.5,3 143.7,3.3 C144.1,3.7 144.1,4.1 144.1,4.7 L144.1,11 C144.1,12 144.1,14.4 143.8,15.1 C143.7,15.2 143.6,15.4 143,15.4 L142.4,15.5 C142.3,15.6 142.3,15.7 142.3,15.9 C142.3,16.1 142.4,16.2 142.5,16.3 L142.7,16.3 C143.4,16.3 144,16.2 144.9,16.2 C145.6,16.2 146.3,16.2 147.4,16.3 C147.5,16.2 147.6,16.1 147.6,16 C147.6,15.8 147.6,15.7 147.5,15.6 L147.5,15.5 L146.8,15.4 C146.3,15.4 145.9,15.2 145.9,15.1 C145.7,14.7 145.5,13.1 145.5,10.8 L145.5,6.2 L145.5,5.1 C145.8,5.5 146.4,6.1 146.9,6.7 C147.2,7.1 147.6,7.5 147.8,7.7 L152.7,13.2 C154.3,15 155.1,16 155.4,16.4 L155.5,16.5 L155.6,16.5 C155.9,16.5 156.1,16.4 156.1,16.2 C156.1,16 156,15.1 156,12.5 L156,7.2 C156,6.1 156,3.9 156.3,3.2 C156.3,3.1 156.6,3 157.4,2.8 L157.4,2.7 Z M138.6,2.7 C138.7,2.6 138.7,2.4 138.7,2.3 C138.7,2.2 138.6,2.1 138.5,2 L138.4,2 C137.7,2 137.1,2.1 136.2,2.1 C135.4,2.1 134.6,2.1 133.8,2 C133.7,2.1 133.6,2.2 133.6,2.3 C133.6,2.5 133.6,2.6 133.7,2.7 L133.7,2.8 L134.3,2.8 C134.8,2.8 135.1,3 135.2,3.2 C135.4,3.6 135.6,5.1 135.6,7.5 L135.6,9.9 C135.6,12.4 134.9,15.3 131.6,15.3 C128.8,15.3 127.5,13.6 127.5,9.9 L127.5,5.4 C127.5,3.2 127.6,3 128.6,2.9 L129.1,2.9 C129.2,2.8 129.3,2.7 129.2,2.5 C129.2,2.4 129.1,2.2 129,2.1 C128,2.1 127.3,2.2 126.4,2.2 C125.5,2.2 124.8,2.2 123.8,2.1 C123.7,2.2 123.6,2.3 123.6,2.5 C123.6,2.7 123.6,2.8 123.7,2.9 L124.3,2.9 C125.3,3 125.4,3.2 125.4,5.4 L125.4,10.4 C125.4,12.9 125.9,14.5 127.1,15.5 C128,16.3 129.4,16.7 131.1,16.7 C132.8,16.7 134.3,16.1 135.2,15.1 C136.2,14 136.7,12.3 136.7,10 L136.7,7.6 C136.7,6.5 136.7,4 137,3.4 C137.1,3.2 137.5,3 137.9,3 L138.6,2.7 Z M114.4,29.6 C114.7,29.4 114.6,28.5 114.3,28.3 C112.1,28.4 110.4,28.5 108.4,28.5 C106.2,28.5 104.5,28.4 102,28.3 C101.7,28.5 101.6,29.4 101.9,29.6 L103.2,29.7 C105.8,29.9 106.2,30.8 106.2,36.1 L106.2,54.3 C106.2,59.6 106.1,60.1 103.3,60.6 L102.4,60.8 C102.1,61.1 102.2,61.9 102.5,62.1 C104.5,62 106.2,61.9 108.4,61.9 C110.4,61.9 112.1,62 114.8,62.1 C115.1,61.9 115.2,61 114.9,60.8 L113.4,60.6 C110.6,60.3 110.3,59.6 110.3,54.3 L110.3,47.2 C110.3,45.7 110.4,45.6 112.8,45.6 L127.2,45.6 C129.6,45.6 129.7,45.7 129.7,47.2 L129.7,54.3 C129.7,59.6 129.7,60.1 126.6,60.6 L125.6,60.8 C125.3,61.1 125.4,61.9 125.7,62.1 C127.9,62 129.7,61.9 131.8,61.9 C133.8,61.9 135.5,62 137.9,62.1 C138.2,61.9 138.3,61 138,60.8 L136.8,60.6 C133.9,60.2 133.8,59.6 133.8,54.3 L133.8,36.1 C133.8,30.8 133.9,30 136.8,29.7 L137.9,29.6 C138.2,29.4 138.1,28.5 137.8,28.3 C135.5,28.4 133.8,28.5 131.8,28.5 C129.7,28.5 128,28.5 125.7,28.3 C125.4,28.5 125.3,29.4 125.6,29.6 L126.6,29.7 C129.6,30 129.7,30.8 129.7,36.1 L129.7,41.9 C129.7,43.5 129.6,43.5 127.2,43.5 L112.8,43.5 C110.4,43.5 110.3,43.4 110.3,41.9 L110.3,36.1 C110.3,30.8 110.4,30 113.3,29.7 L114.4,29.6 Z M112.4,13.2 C112.3,12.9 112.1,12.8 111.9,12.8 C111.8,12.8 111.7,12.8 111.6,12.9 L111.6,13 C111,14.2 110.5,14.8 110.2,15 C109.8,15.2 109.1,15.3 107.6,15.3 C105.8,15.3 105.4,15.1 105.2,14.9 C104.9,14.6 104.8,13.9 104.8,12.8 L104.8,9.8 C104.8,9.4 104.8,9.4 105.3,9.4 L106.5,9.4 C107.2,9.4 107.8,9.4 108.1,9.5 C108.4,9.6 108.5,9.8 108.6,10.2 L108.8,11 L108.8,11.1 C108.9,11.2 109,11.3 109.2,11.3 C109.4,11.3 109.5,11.2 109.6,11.1 L109.6,10.3 C109.6,9.9 109.5,9.5 109.5,9.1 C109.5,8.7 109.5,8.2 109.6,7.8 L109.6,6.9 C109.5,6.8 109.4,6.7 109.2,6.7 C109,6.7 108.9,6.8 108.8,6.9 L108.6,7.8 C108.5,8.3 108.4,8.3 108.2,8.4 C108,8.5 107.3,8.5 106.5,8.5 L105.3,8.5 C104.8,8.5 104.8,8.5 104.8,8.1 L104.8,3.9 C104.8,3.2 104.8,3.2 105.3,3.2 L106.8,3.2 C107.7,3.2 108.4,3.2 108.8,3.3 C109.8,3.5 110,4.1 110.2,5.1 L110.2,5.3 C110.3,5.4 110.4,5.4 110.5,5.4 C110.6,5.4 110.8,5.3 110.9,5.2 L110.9,4.8 C110.8,3.6 110.7,2.5 110.6,2.2 L110.5,2.1 L110.4,2.1 C110.2,2.2 108.9,2.2 107.6,2.2 L103.6,2.2 C102.8,2.2 102.1,2.2 101.1,2.1 C100.9,2.2 100.9,2.4 100.9,2.5 C100.9,2.7 100.9,2.8 101,2.9 L101.4,3 C102.5,3.1 102.5,3.3 102.5,5.5 L102.5,13.1 C102.5,15.4 102.4,15.5 101.3,15.6 L100.5,15.7 C100.4,15.8 100.4,16 100.4,16.2 C100.4,16.4 100.5,16.5 100.6,16.5 C101.8,16.5 102.5,16.4 103.5,16.4 L105.4,16.4 C107.2,16.4 109.1,16.4 111,16.5 L111.1,16.5 L111.1,16.4 C111.7,15.6 112.2,14 112.4,13.2 Z M94.8,12.9 L94.8,5.3 C94.8,3.1 94.9,2.9 95.9,2.8 L96.4,2.8 C96.5,2.7 96.6,2.6 96.5,2.4 C96.5,2.3 96.5,2.1 96.3,2 C95.3,2 94.6,2.1 93.8,2.1 C92.9,2.1 92.2,2.1 91.3,2 C91,2.1 91,2.3 91,2.4 C91,2.6 91,2.7 91.1,2.8 L91.6,2.9 C92.7,3 92.7,3.2 92.7,5.4 L92.7,7.8 C92.7,8.3 92.7,8.3 91.8,8.3 L85.8,8.3 C84.9,8.3 84.9,8.3 84.9,7.8 L84.9,5.4 C84.9,3.2 85,3 86,2.9 L86.5,2.9 C86.6,2.8 86.7,2.7 86.6,2.5 C86.6,2.4 86.6,2.2 86.4,2.1 C85.4,2.1 84.7,2.2 84,2.2 L81.4,2.2 C81.2,2.3 81.2,2.5 81.2,2.6 C81.2,2.8 81.2,2.9 81.3,3 L81.9,3 C82.8,3.1 83,3.3 83,5.5 L83,13.1 C83,15.3 83,15.4 81.9,15.6 L81.5,15.7 C81.4,15.8 81.4,16 81.4,16.2 C81.4,16.4 81.5,16.5 81.6,16.5 L84,16.5 C84.8,16.5 85.5,16.5 86.7,16.6 C86.8,16.5 86.9,16.3 86.9,16.2 C86.9,16 86.9,15.9 86.8,15.8 L86.1,15.7 C85.1,15.6 85,15.5 85,13.2 L85,10.2 C85,9.7 85,9.7 85.9,9.7 L91.9,9.7 C92.8,9.7 92.8,9.7 92.8,10.2 L92.8,13.2 C92.8,15.4 92.8,15.5 91.7,15.7 L91.3,15.8 C91,15.6 91,15.8 91,15.9 C91,16.1 91.1,16.2 91.2,16.2 C92.2,16.2 92.9,16.1 93.7,16.1 C94.5,16.1 95.3,16.1 96.2,16.2 C96.4,16.1 96.4,15.9 96.4,15.8 C96.4,15.6 96.4,15.5 96.3,15.4 L95.7,15.3 C94.9,15.2 94.8,15.1 94.8,12.9 Z M77.5,1.7 L77.5,1.6 C77.4,1.4 77.2,1.4 77.1,1.4 L76.8,1.4 L76.8,1.5 C76.6,2 76.5,2 75.4,2 L66.7,2 C65.8,2 65.3,1.9 65.2,1.5 L65.2,1.4 C65.1,1.3 65,1.3 64.9,1.3 C64.8,1.3 64.7,1.3 64.6,1.4 L64.5,1.4 L64.5,1.5 C64.4,2.3 64,3.7 63.7,4.6 L63.7,4.8 C63.8,5.1 64.3,5.2 64.5,5 C64.7,4.5 64.9,4.1 65.4,3.6 C65.9,3.2 66.9,3.1 67.9,3.1 L69.1,3.1 C69.6,3.1 69.6,3.1 69.6,3.6 L69.6,13 C69.6,15.3 69.5,15.4 68.4,15.5 L67.6,15.6 L67.5,15.6 C67.4,15.7 67.3,15.8 67.3,16 C67.3,16.1 67.4,16.3 67.5,16.4 C68.8,16.4 69.6,16.3 70.4,16.3 C71.2,16.3 71.9,16.3 73.1,16.4 C73.2,16.3 73.3,16.1 73.3,16 C73.3,15.8 73.3,15.7 73.2,15.6 L72.5,15.5 C71.5,15.4 71.4,15.3 71.4,13 L71.4,3.6 L71.4,3.1 L73.3,3.1 C74.4,3.1 75.2,3.3 75.6,3.6 C75.8,3.7 76,4.3 76.1,5 L76.1,5.1 C76.2,5.2 76.3,5.3 76.5,5.3 C76.7,5.3 76.9,5.2 76.9,5.1 C77.2,4.2 77.3,2.5 77.5,1.7 Z M63.2,45.4 C63.2,51.9 66.3,56.5 70.4,59.3 C74.1,61.8 78.4,62.7 83,62.7 C86.2,62.7 89.9,61.9 91,61.5 C91.6,61.3 92.2,61.1 92.8,61 C93.6,60 94.9,56.7 95.2,54.1 C95,53.7 94.2,53.6 93.9,53.9 C92.7,56.9 89.9,61.1 83.4,61.1 C75.1,61.1 68.4,55.2 68.4,44.7 C68.4,34.3 74.9,29.4 82.7,29.4 C90,29.4 92.3,33.3 93,36.8 C93.4,37.1 94.1,37.1 94.4,36.7 C94,33.6 93.7,30.4 93.7,29.3 C93.2,29.4 92.9,29.2 92.3,29.1 C89.9,28.4 86.1,27.9 83.4,27.9 C78.2,27.9 73.5,29.3 69.8,32.2 C65.7,35 63.2,39.8 63.2,45.4 Z M50.1,36.9 L50.1,1.8 C21.9,-0.9 0.6,1.8 0.6,1.8 L0.6,36.9 C2.9,60.7 25.2,63.5 25.4,63.5 C29.3,62.7 48,59 50.1,36.9 Z M48.9,36.7 C46.9,57.9 29.2,61.5 25.4,62.2 C25.2,62.2 4,59.6 1.9,36.7 L1.9,3 C1.9,3 22.1,0.4 48.9,3 L48.9,36.7 Z M41.7,49.2 C42.5,48.1 42.9,46.8 43.2,45.5 C42.7,46.1 42.1,46.6 41.4,46.9 C40.9,48.4 41.1,50 41.7,49.2 Z M42.4,45.8 C43,45.3 43.3,44.5 44,44.3 C43.4,43.8 42.9,44.8 42.6,44.5 C43.1,43.7 43.4,43.1 43.5,42.1 C43.5,41.6 44.2,41.1 44.3,40.8 C43.7,40.9 42.1,41.8 41.8,42.4 C40.7,43.8 40.8,45.2 36.3,47.2 C36.1,47.2 37.1,46.4 37.4,45.5 C37.5,45.1 38.1,43.1 37.7,42.2 C36.8,43.1 37,43.5 36.7,44.2 C36,46.1 35.7,46.2 34,47.4 C33.8,47.6 32.5,49.5 30.8,49.6 C31,49.6 30.9,49.1 31.4,48.8 C33.3,47.6 32.6,44.9 35,44.5 C33.8,44.1 32.9,45.3 32.7,45.1 C33.7,43.7 32.8,42.6 33,41.5 C32.7,41.7 32.3,42.1 32.3,42.4 C32.1,44.4 31.2,44.7 31.1,45.6 C31.3,47 30.2,48.1 29.3,49.1 C29.1,48.3 29.4,47.5 30.4,46.9 C31,46.5 30.3,45.4 30.3,45.4 C30.1,46.6 29.4,47 28.9,47.1 C28.5,47.2 30.2,45.4 30,43.7 C29.9,43 29.7,43.3 29.6,42.5 C28.1,44.1 29.2,45.1 27.7,47 C27,47.9 26.7,49.5 26.6,49.5 C26.6,47.2 26.7,47.8 27.7,45.9 C28.6,44.3 27.6,42.9 27.5,41.9 C25.9,43 26,45.5 26,45 C25.9,44.5 25.7,43.5 26,42.7 C26.4,41.3 25.5,39.2 25.5,39.2 C22.9,43.3 25.1,48.1 24.9,48.1 C23.8,46.3 22.9,46.2 22.7,44.9 C22.6,44.2 21.2,40.1 18.7,40 C20,41.1 19.6,41.2 19.7,43 C18.9,47.4 25.1,47.9 24.7,50.2 C23.9,48.8 22.6,48.3 20.6,47.2 C19.7,46.5 18.8,46.2 18.7,45.1 C18.8,44.3 18.8,44.5 18.7,43.5 C18.6,42.8 17.9,43.2 17.4,41.7 C16.3,42.7 16.7,43.8 16.8,44.5 C16.8,44.7 17,45.4 16.8,45.8 C16.4,45.5 16.1,45 15.7,44.4 C14.9,43.4 14.9,42.1 14.5,41.3 C14.3,40.9 14.1,40.4 13.9,40.3 C13.7,41.9 13.8,43.3 14.5,44.5 C14.5,44.5 14.3,44.8 14.1,44.9 C13.4,44.7 12.4,44.1 12,43 C11.1,43.7 11.7,44.7 11.7,44.6 C9.8,43.6 11.7,39.8 9,39.9 C9.7,40.6 9.3,41.6 9.2,42.5 C9.2,43.9 11,45 11,45 C9,44.3 8.5,45.3 8.6,45.3 C8.6,45.3 11.6,46.6 16.3,47.1 C16.9,47.2 17.8,47.9 17.6,47.9 C17,47.9 15.8,47.1 14,48.6 C15,48.6 15.7,50.3 17.4,49.3 C21.7,48.1 23.3,50.2 24,50.8 C23.8,51.1 20.7,48.8 18.2,50.3 C16.9,51.1 14.7,50.4 13.1,49.1 C13.8,50.8 16.7,52.8 17.6,52.8 C18.8,52.8 20.3,51.3 21.9,51.4 C24.6,51.5 25,54 24.7,53.8 C24.7,53.8 22.6,50.3 19.8,54 C21.1,53.4 22.8,53.6 24.3,54.3 C24.5,54.4 23.9,55 23.5,55.5 C23.2,55.8 22.1,57.5 20.9,55.8 C20.7,55.6 20.1,54 16.3,54.3 C17.8,55 19.4,56.7 20.2,57.5 C22.2,59.5 25.3,55.1 25.4,55.6 C25.4,56.6 25.9,57.1 26.2,57.6 C26.9,59 25.3,58.7 24.5,58.4 C24.5,58.4 26.1,60.9 27.4,59.5 C28.9,58 25.5,56.8 26.5,55.6 C27.1,54.9 29.3,57.1 30.2,57.1 C32.8,57.4 32.7,54.9 34.1,55 C32.8,53.7 31.4,54.4 31.1,54.7 C30.2,55.7 29.2,55 28.5,54.5 C28.1,54 27.5,53.9 26.9,54.1 C26.6,54.1 27.5,53.1 28.5,53.3 C30.9,53.8 33.3,52.9 33.9,52.6 C34.9,52.1 35.4,51.1 36.5,50.1 C36.2,50.2 34.1,51.3 33.5,51.6 C31.6,52.6 30.4,51.3 30.1,51.3 C29.7,51.3 29.8,51 30.4,50.8 C32.4,50.4 33.8,48.6 35.7,47.9 C38,46.9 40.7,47.5 42.4,45.8 Z M38.5,43.1 C38.4,43.5 38.4,43.8 38.3,44.3 C38.3,44.3 38.8,44.5 39,44.7 C39.3,44.4 39.6,44.3 39.9,43.9 C39.8,43.9 38.6,42.7 38.6,42.8 C38.5,43 38.5,43 38.5,43.1 Z M38.7,45 C38.7,45 38.2,44.6 38.2,44.7 C38.1,44.9 38,45.2 37.9,45.4 C37.7,45.7 38.1,45.6 38.7,45 Z M44.4,40 C44.3,35.4 41.5,30.4 42.3,31.3 C44.2,33.7 44.8,38.8 46.1,43.1 C46.1,43.1 46.9,43.5 46.8,38 C46.8,36.9 46.3,35.4 45.7,34.3 C44.6,32.2 42.4,28.8 42.4,28.7 C42.9,28.3 44.3,31.3 45.4,32.4 C46.1,33.2 48.2,33.9 48.3,33.8 C46.7,30.6 42.6,27.6 43.1,27.2 C46,30 47,30.1 47.1,29.9 L44.5,27.3 C43.8,26.3 42.8,25.5 42.9,25.6 C44.1,25.9 42.3,24.6 40.9,24.2 C40.6,24.1 40.2,24.1 40.2,24 C40.2,23.8 40.5,23.9 40.8,23.8 C41,23.7 41.2,23.6 41.2,23.3 C40.7,23.4 40.1,23.3 39.7,23.1 C38.8,22.7 37.1,22.2 36.3,22.5 C35.8,22.7 35.8,22.7 35.3,23 C35.1,22.9 34.5,22.5 33.7,23.5 C33.4,23.8 33.1,24.2 33.1,24.4 C33.1,25.1 33.1,24.4 33.3,25.1 C33.4,25.4 33.1,25.9 31.8,26.3 C31.3,26.5 31.4,26.9 31.4,26.9 C31.6,26.8 32,26.5 32.6,26.8 C33.7,27.3 33.9,26.5 34.6,25.9 C34.6,25.9 34.4,26.7 34.6,26.7 C35.5,26.9 35.2,27.5 35.1,27.6 C34,28.6 34.5,29 34.1,29.6 C33.7,30.2 33.2,30.4 32.3,30.4 C31.1,30.4 33.8,28.6 31.2,27.8 C31.6,28.5 31.8,29 30.9,29.6 C30.3,29.9 30.6,31.6 29.1,30.8 C29.1,30.8 29,32.1 28.8,32.1 C30.8,33.9 29.7,34.8 29.8,37.3 C30.4,38.9 29.7,39.7 29.6,39.7 C29.7,40.8 29.8,41.4 30.5,42.2 C31,42.8 30.5,43.8 31,44.5 C31.5,42.9 31.9,43.6 32.1,41.3 C32.3,40.9 33,40.3 33.5,40.2 C33.5,41.6 34,42.8 33.9,43.4 C33.9,43.4 35.1,43.2 35.4,43.3 C35.7,43.4 35.9,43.8 35.9,44 C35.5,44.2 35.5,44.2 34.9,44.6 C33.9,45.4 33.4,46.9 33.4,46.9 C33.4,46.9 35.8,45 36,44.6 C36.1,44.3 36.3,43.9 36.4,43.5 C36.4,43.5 35.1,42.7 34.8,42 C33.7,39.9 36.5,43.2 36.5,43 C36.7,42.3 37.2,41.6 37.2,41.6 C37,41.4 36.6,41.3 35.9,40.1 C34.4,37.4 37.7,41.2 37.7,41.2 C38.6,40.7 38.6,41.4 38.7,42.1 C38.7,42.2 40.2,43.2 40.2,43.3 C40.6,42.9 40.9,42.4 41.1,42 C41.1,41.9 38.5,39.6 38,38.8 C34.3,32.5 41,41.6 41.3,41.3 C41.5,40.8 41.5,40.1 41.5,39.2 C41.5,39.2 40.3,38.3 39.5,37 C36.4,31.9 41.5,38.5 41.5,38.5 C41.4,37.4 40.6,32.7 41.2,34.1 C41.5,34.8 42.5,37.8 42.3,40.9 C42.5,40.7 43.9,40.2 44.4,40 Z M46.4,9.8 C46.4,10 46.4,10.1 46.5,10.2 C46.5,10.1 46.5,10 46.4,9.8 C46.4,9.8 46.3,8.1 44.5,8.1 C43.9,8.1 43.2,8.8 41.3,8 L41.3,10.9 C42,11.1 44.1,10 44.9,9.6 C45.6,9.3 46.4,9.5 46.4,9.8 Z M41.3,14 L41.3,16.9 C41.3,16.9 42.9,16.9 44.7,15.7 C45.2,15.4 46,15.5 46.4,15.8 C46.4,15.8 46.2,13.9 44.6,14.2 C41.7,14.6 41.3,14 41.3,14 Z M30.4,18.5 C31.9,18.5 37.9,20.1 40.8,20 L40.8,4.9 C40.8,4.9 36.5,5.5 32.8,4.1 C29.8,3 25.6,4.9 25.6,4.9 L25.6,19.7 C25.6,19.7 27.2,18.5 30.4,18.5 Z M27.1,13.5 L27.8,13.5 L27.8,16.3 C27.8,16.5 28,16.6 28.2,16.5 C28.3,16.5 28.4,16.5 28.3,16.6 C28.1,16.8 27.8,17.2 27.7,17.3 C27.4,17.1 27.2,16.9 27.2,16.7 C27.2,16.5 27.1,13.8 27.1,13.5 Z M27.9,10.3 C28.3,10.1 29.3,9.9 29.7,10 C29.9,10 30,10 30,9.9 C30,9.8 30.2,9.8 30.2,9.9 L30.2,11.2 C30.2,11.3 30,11.3 30,11.2 C30,11 30,11 29.9,10.8 C29.5,10.2 28.4,10.2 27.9,10.9 C27.7,11.1 27.6,11.6 27.9,11.6 C28.1,11.7 28.9,11.6 29.1,11.6 C29.4,11.6 30,11.4 30,11.4 C30.1,11.4 30.2,11.3 30.2,11.4 L30.2,12.1 C30.2,12.2 30.1,12.2 30,12.1 C29.9,12.1 29.3,12 29.1,12 C28.7,12 28,11.8 27.8,11.9 C27.6,12 27.8,12.3 27.9,12.5 C28.4,13.2 29.4,13.2 29.8,12.7 C29.9,12.5 29.9,12.4 29.9,12.3 C29.9,12.2 30.1,12.2 30.1,12.3 L30.1,13.4 C30.1,13.5 29.9,13.5 29.9,13.4 C29.9,13.2 29.8,13.2 29.6,13.3 C29,13.5 28.3,13.5 27.8,13.2 C27.3,12.9 26.9,12.8 26.9,11.8 C26.9,11 27.5,10.5 27.9,10.3 Z M31.1,5.7 C30.8,5.8 30.7,6 30.6,6.3 C30.5,6.6 29.7,9.1 29.6,9.3 C29.4,8.5 28.5,6.6 28.2,6.2 C28,5.8 27.7,5.9 27.5,5.9 C27.3,5.9 27.4,5.7 27.5,5.7 C27.7,5.7 29.1,5.9 29.5,5.9 C29.6,5.9 29.6,6.1 29.5,6.1 C29.4,6.1 29.2,6.2 29.2,6.3 C29.2,6.5 29.7,7.6 29.8,7.8 C29.9,7.5 30.4,6.3 30.3,6 C30.2,5.7 30.2,5.7 30,5.7 C29.8,5.7 29.8,5.6 30,5.5 C30.2,5.5 30.9,5.4 31.1,5.4 C31.3,5.5 31.3,5.6 31.1,5.7 Z M32.6,5.7 L32.3,5.9 L32.1,5.9 L31.9,5.7 L31.9,5.3 L32.3,5 L32.7,5.3 L32.7,5.7 L32.6,5.7 Z M33.2,8.7 L32.7,9.3 L32.3,9.3 C32.1,9.1 31.9,8.9 31.9,8.7 L31.9,7.2 L31.4,6.9 C31.3,7 31.1,7 31.2,6.9 L31.9,6.2 L32.1,6.2 L32.6,6.7 L32.6,8.2 C32.7,8.5 32.8,8.6 33.2,8.7 Z M35.8,6.9 C35.7,6.9 34.6,7 34.6,7 C34.5,7 34.7,8.4 34.7,8.5 C34.7,8.6 34.8,8.8 35,8.7 C35.1,8.6 35.3,8.8 35.1,8.9 C35,9 34.8,9.5 34.7,9.5 C34.5,9.6 34.3,9.2 34.2,9 C34.1,8.6 34,7.7 34,7 C34,7 33.5,6.8 33.7,6.7 C34.2,6.5 34.7,5.8 34.7,5.7 C34.8,5.5 34.9,5.6 34.8,5.8 C34.6,6.1 34.7,6.4 34.7,6.6 C34.7,6.7 35.7,6.6 35.8,6.6 C35.9,6.7 35.9,6.9 35.8,6.9 Z M34.5,11.8 C34.4,12.3 34.8,12.7 35.2,12.9 C35.5,13 35.9,13 36,12.9 C36.1,12.9 36.1,12.8 36.2,12.8 C36.3,12.7 36.4,12.8 36.3,12.9 C36.2,13 35.6,13.6 35.4,13.7 C35.2,13.7 34.9,13.7 34.6,13.5 C34.2,13 33.9,12.8 34,12 C34.1,11.4 35.1,10.9 35.3,10.7 L36,11.4 C35.9,11.5 35.7,11.6 35.4,11.6 C35.2,11.6 35,11.4 34.8,11.2 C34.8,11.2 34.6,11.4 34.5,11.8 Z M38.5,9.4 L37.9,10 C37.7,9.9 37.6,9.7 37.6,9.5 C37.1,9.6 36.8,9.9 36.6,10 C36.4,9.8 36.1,9.4 36.1,9.1 C36.1,8.8 36.3,8.3 36.5,8.2 L36.6,8.2 C36.5,8.1 36.4,8.1 36.3,8 C36.2,7.9 36.2,7.8 36.3,7.7 C36.4,7.5 36.8,7.1 37.2,7 C37.4,7 37.7,7 38.2,7.4 C38.1,7.5 38.1,8.8 38.1,8.9 C38.2,9.2 38.5,9.4 38.5,9.4 Z M39.7,12.4 C39.5,12.4 39.3,12.4 39.2,12.3 C39,12.3 39.1,12.1 39.2,12.1 C39.3,12.1 39.6,12.1 39.7,12.2 C39.8,12.2 39.9,12.4 39.7,12.4 Z M39.7,12.8 C39.5,12.8 39.3,12.8 39.2,12.7 C39,12.6 39.1,12.5 39.2,12.5 C39.3,12.5 39.6,12.5 39.7,12.6 C39.8,12.6 39.9,12.8 39.7,12.8 Z M36.6,15.6 C36.8,15.5 37.3,15.1 37.4,14.9 C37.7,15.1 37.9,15.3 38,15.5 C38.2,15.4 38.5,15.2 38.6,15.1 C38.8,15.3 39.1,15.5 39.2,15.6 C39.3,15.5 39.5,15.6 39.3,15.7 C39.2,15.8 38.8,16.1 38.7,16.2 C38.5,16.1 38.2,15.8 38.1,15.7 C38,15.7 37.9,15.8 37.9,15.8 L37.9,17.8 L37.3,17.8 L37.3,16 C37.3,15.7 36.9,15.6 36.6,15.6 Z M36.5,12.6 C36.5,11.8 37,11.2 37.9,10.9 C38.6,11.1 38.8,11.8 38.9,12.2 C38.9,12.6 38.7,13.1 38.5,13.4 C38.2,13.6 38,13.8 37.7,14.1 C36.9,14 36.5,13.1 36.5,12.6 Z M33.4,15.2 C33.6,14.9 33.9,14.8 34.1,14.6 C34.4,14.8 34.4,14.9 34.6,15.1 C34.6,15.4 34.5,16.2 34.5,16.4 C34.5,16.6 35.5,16.8 35.5,16.5 L35.5,15.5 C35.5,15.3 35.1,15.3 34.9,15.3 C35.2,15 35.4,14.8 35.6,14.7 C35.8,14.9 36.1,15.1 36.2,15.3 C36.2,15.7 36.1,16.5 36.2,16.8 C36.3,17 36.2,17.1 36.4,17.2 C36.2,17.4 36.1,17.4 36,17.6 C35.8,17.5 35.5,17.3 35.5,17 C35.3,17.2 34.6,17.4 34.4,17.5 C34.2,17.3 34,17.2 34,16.9 C34,16.6 34.1,15.8 34,15.6 C33.7,15.2 33.6,15.2 33.4,15.2 Z M32.8,13 C32.6,12.9 32.2,12.6 32.1,12.3 C31.8,12.7 31.7,13.1 31.1,13.2 C31.4,12.9 31.8,12.3 31.7,11.7 C31.7,11.2 31.4,10.9 31.1,10.8 C30.9,10.9 30.7,11.1 30.6,11.1 C30.5,11.2 30.4,11 30.5,10.9 C30.8,10.8 31.4,10.3 31.5,10.2 C31.8,10.3 32.1,10.5 32.1,10.7 C32.3,10.6 32.7,10.2 32.8,10.1 C32.9,10.3 33.3,10.6 33.7,10.7 C33.3,11.3 32.5,10.9 32.4,10.8 C32.3,11 32.2,11.1 32.4,11.4 C32.6,11.8 33.2,12.1 33.6,12.2 C33.4,12.3 33,12.9 32.8,13 Z M31.9,14.9 C31.9,14.9 31.4,14.7 31.6,14.6 C32,14.4 32.4,14 32.5,13.8 C32.6,13.6 32.7,13.7 32.6,13.9 C32.5,14.1 32.5,14.5 32.5,14.6 C32.5,14.7 32.8,14.7 33,14.7 C33.1,14.7 33.1,15 33,15 L32.5,15 C32.4,15 32.5,16.4 32.5,16.5 C32.5,16.6 32.9,16.7 33,16.6 C33.1,16.5 33.2,16.6 33.1,16.7 C33,16.8 32.8,17.2 32.6,17.2 C32.4,17.3 32.1,17.1 32,16.9 C31.7,16.5 31.9,15.5 31.9,14.9 Z M30.6,17.1 C30.4,16.9 30.2,16.9 30.2,16.7 C29.7,16.9 29.5,17.2 29.2,17.4 C29,17.2 28.9,16.9 28.9,16.6 C28.9,16.3 29.2,15.9 29.4,15.7 L29.3,15.7 C29.2,15.6 29.1,15.2 29.2,15.1 C29.3,14.9 29.8,14.3 30.2,14.3 C30.5,14.3 30.6,14.6 30.9,14.8 C30.8,14.9 30.9,16 30.9,16.1 C31.1,16.4 31.2,16.4 31.4,16.3 C31.5,16.2 31.6,16.3 31.5,16.4 C31.2,16.4 30.7,16.9 30.6,17.1 Z M30.1,15.7 L30.1,15.1 C30.1,14.9 29.7,14.7 29.7,14.7 C29.6,14.7 29.5,14.7 29.4,14.9 C29.3,15 29.3,15.4 29.4,15.5 C29.7,15.8 29.9,15.7 30.1,15.7 Z M29.5,15.9 C29.2,16.4 29.4,16.5 29.6,16.7 C29.8,16.6 30,16.5 30.1,16.4 L30.1,15.9 C29.8,15.9 29.7,16 29.5,15.9 Z M37.1,12.7 C37.2,13 37.8,13.5 38,13.5 C38.2,13.2 38.4,12.7 38.3,12.3 C38.3,12 37.8,11.6 37.4,11.5 C36.9,11.7 36.9,12.2 37.1,12.7 Z M37.1,9.5 C37.3,9.4 37.4,9.4 37.6,9.4 L37.6,9.1 L37.6,8.6 C37.3,8.5 37,8.4 36.7,8.2 L36.8,8.3 C36.5,8.9 36.9,9.4 37.1,9.5 Z M36.4,7.9 C36.6,8.1 37.2,8.4 37.5,8.5 L37.5,7.9 C37.5,7.7 36.9,7.4 36.8,7.4 C36.7,7.4 36.5,7.6 36.4,7.8 L36.4,7.9 Z M25.1,21.7 C24.6,21.8 24,22 23.9,22.5 C23.6,22.8 23.6,22 23,22.4 C22.7,22.7 23.4,23.5 23.2,23.5 C22.6,23.7 22.6,22.5 22.3,22.5 C21.8,22.7 20.4,23.9 21.8,24.9 C21.8,24.2 23,23.5 23.4,25 C24.6,24.9 25,25.7 25.2,26.1 C27,26.4 26.5,27.6 26.4,27.6 C26.2,27.3 25.4,26.1 24.2,27 C23.9,27.2 23.4,27.4 23.1,27.1 C23.1,27.5 23.6,27.9 24,27.8 C25.1,27.5 25.4,28.5 24.5,28.8 C24.7,29.1 25,29.1 25.4,28.9 C25.9,28.6 25.9,28.3 26.1,28.2 C26.4,29.7 24.5,29.8 23.9,29.9 C24,30.2 24.2,30.3 24.6,30.4 C22.6,30.5 22.2,32.3 22.4,33.4 C22.8,33.4 23.5,32.5 23.5,33 C22.1,34.5 21.6,36.5 22.4,37.7 C22.8,37.6 22.9,37.2 23,36.9 C23.1,36.9 23.8,37.2 22.6,38.6 C22.5,39 22.1,40 23,40.3 C23.3,39.9 23.3,39.6 23.4,39.1 C23.7,39 23.8,39.8 23.7,40.1 C22.5,40.6 22.7,44.1 24,46 C23.4,44.6 23.5,42.8 24,41.4 C24.4,40.3 25.3,37.8 25.3,37.9 C25.8,38.5 26.5,41.2 26.5,42.4 C27.2,41.8 27.4,41.1 28,40.6 C28.3,41.6 28.4,42.2 28.6,43.1 C28.9,42.2 29.6,41.3 28.6,38.5 C28.8,38.3 29.2,39.5 29.4,39.4 C29.5,39.4 29.6,38.8 29.3,37.7 C28.5,37 28.4,35.9 28.5,35.9 C28.6,35.8 28.9,37 29.3,37 C29.4,36.1 29.6,35.2 29.5,34.5 C29.5,34.3 29.2,33.4 28.3,32.6 C27.8,32.2 27.6,31.2 27.7,31.1 C28.2,31.5 28.1,31.9 28.5,32 C28.7,31.6 28.6,30.2 28.1,29.6 C27.8,29.1 28,29.2 28.3,29.5 C28.7,30 28.5,30 28.9,30.2 C29.7,28.3 29,27.9 29,27.7 C29.1,27.6 29.6,28.6 30.1,28.2 C29.3,27.8 29.3,27.1 29.2,26.4 C29.1,25.8 28.8,25.6 28.9,25.5 C29.7,26.1 29.9,25.4 30,25.3 C29.8,25.4 29.1,25.5 29,24.4 C29,24 28.3,23.8 28.3,23.8 C28.7,23.7 30.1,23.6 29.7,22.3 C29.5,22.6 29.1,23.1 28.3,22.9 C28.3,22.9 28.8,22.8 28.7,22.2 C27.5,22.9 26.5,21.5 25.1,21.7 Z M27.5,23.4 C26.7,23.6 26,24.5 25.1,24.1 C25,24 24.7,23.9 24.7,23.8 C24.9,23.9 25.1,24 25.3,24 C25.3,24 24.8,23.6 25.2,23 C24.6,23.4 24.4,23.3 24.4,23.1 C24.4,23 25.2,22.5 25.9,22.7 C26.5,22.9 26.9,23.3 27.5,23.4 Z M26.1,23.4 C26.1,23.6 25.8,23.9 25.8,23.9 L26.7,23.4 C26.5,23.3 26,23 25.8,22.9 C25.9,22.9 26.1,23.2 26.1,23.4 Z M20.7,18.5 C23,18.7 25,19.7 25,19.7 L25,4.8 C25,4.8 21.6,2.4 16.1,4.6 C14.5,5.2 10.5,4.7 10.5,4.7 L10.5,19.9 C14,20.2 18.5,18.4 20.7,18.5 Z M19.1,10.5 C19.5,10.6 20.2,10.5 20.4,11.1 C20.6,11.7 20.2,12.5 19.7,12.6 C19.3,12.6 18.9,12.5 18.6,12.5 C18.5,12.5 18.4,12.5 18.4,12.7 C18.4,12.8 18.2,12.9 18.2,12.7 C18.2,12.5 18.1,11.8 18.1,11.6 C18.1,11.4 18.3,11.4 18.3,11.6 C18.3,11.8 18.4,12 18.6,12.2 C18.7,12.4 19.6,12.6 19.9,12.3 C20.2,12.1 20.1,11.7 19.8,11.5 C19.5,11.3 18.5,11.1 18.3,10.8 C18,10.3 18.5,9.9 18.8,9.7 C19.2,9.5 19.6,9.6 19.8,9.6 C19.9,9.6 20.1,9.7 20.2,9.5 C20.2,9.3 20.3,9.4 20.3,9.5 C20.4,10 20.4,9.7 20.4,10.2 C20.4,10.4 20.3,10.4 20.2,10.3 C20.1,10.2 19.5,9.6 19,10 C18.5,10.2 18.7,10.4 19.1,10.5 Z M20.3,13.6 C20.1,13.8 20,14 19.8,14.1 C19.7,14 19.4,13.8 19.3,13.7 C19.6,13.6 19.7,13.4 19.8,13.2 C19.9,13.4 20.1,13.5 20.3,13.6 Z M17.5,14.7 C17.7,14.5 18.1,13.8 18.2,13.6 C18.3,13.4 18.4,13.5 18.3,13.7 C18.3,14 18.2,14.5 18.2,14.7 C18.2,14.8 18.6,14.8 18.7,14.8 C18.8,14.8 18.8,15 18.7,15 C18.6,15 18.2,15.1 18.2,15.1 C18.1,15.1 18.2,16 18.3,16.1 C18.5,16.3 18.6,16.4 18.8,16.1 C18.9,16 19,16.1 18.9,16.2 C18.8,16.3 18.5,16.6 18.4,16.8 C18.3,17 17.9,16.8 17.8,16.6 C17.6,16.3 17.7,15.7 17.7,15 C17.7,15.1 17.3,14.9 17.5,14.7 Z M17.2,12.9 C17,13 16.7,12.8 16.6,12.6 C16.4,12.3 16.5,11.5 16.5,10.9 C16.5,10.9 16.4,10.7 16.3,10.7 C16.1,10.7 16.1,10.6 16.4,10.5 C16.7,10.4 17.2,9.6 17.3,9.5 C17.4,9.3 17.5,9.5 17.4,9.7 C17.2,10.1 17.3,10.5 17.3,10.6 C17.3,10.7 17.9,10.6 18,10.6 C18.1,10.6 18.1,10.8 18,10.8 C17.9,10.8 17.1,10.9 17.1,10.9 C17,10.9 17.2,12.1 17.2,12.2 C17.2,12.2 17.5,12.4 17.5,12.3 C17.6,12.2 17.7,12.3 17.6,12.4 C17.5,12.5 17.4,12.8 17.2,12.9 Z M14.5,14.8 C14.8,14.6 14.9,14.4 15.1,14.2 C15.3,14.5 15.3,14.7 15.5,14.8 C15.7,14.6 16,14.4 16.2,14.2 C16.3,14.3 16.6,14.4 16.6,15 C16.6,15.5 16.7,16.3 16.7,16.5 C16.7,16.6 16.7,16.6 16.9,16.5 C17,16.5 17.1,16.5 17,16.6 C16.9,16.7 16.4,17 16.2,17.2 C16,17 16,16.7 16,16.4 C16.1,16.1 16,15.4 16,15.2 C16,15 15.7,15 15.6,14.9 C15.4,15 15.4,15 15.3,15.2 L15.3,17.2 L14.8,17.2 L14.8,15.4 C14.8,15.1 14.6,14.9 14.5,14.8 Z M12.1,15.6 C12.3,14.6 13.2,14.2 13.5,14 C13.6,14.3 13.9,14.8 14.1,15 C13.8,15.3 13,15.9 12.7,16.1 C12.9,16.4 13.5,16.6 13.7,16.4 C13.9,16.2 14,16.3 13.9,16.5 L13.3,17.4 C12.9,17.2 12,16.6 12.1,15.6 Z M11.8,10.9 C12,10.5 12.6,10.2 13,10 C13.1,10.1 13.3,10.4 13.5,10.6 C13.3,10.7 13.1,10.9 13,11.1 C12.9,11 12.4,10.3 12.1,10.8 C11.9,11.1 11.7,11.8 12.3,12.3 C12.6,12.5 12.9,12.6 13.3,12.5 C13.1,12.8 13,12.9 12.9,13.1 C12.3,13.2 12.1,13 11.8,12.8 C11.3,12.3 11.5,11.4 11.8,10.9 Z M14.5,9.5 C14.4,9.3 14.4,9.2 14.2,9.3 C13.7,9.5 13.1,9.6 12.7,9.4 C12.2,9.1 11.9,9 11.8,8 C11.8,7.4 12.3,6.9 12.7,6.7 C13.1,6.5 13.8,6.6 14.1,6.7 C14.3,6.8 14.4,6.7 14.4,6.5 C14.4,6.4 14.6,6.4 14.6,6.5 L14.6,8 C14.6,8.1 14.4,8.1 14.4,8 C14.4,7.9 14.3,7.6 14.3,7.4 C14.2,7.1 13.4,6.5 12.7,7.3 C12.7,7.3 12.4,7.8 12.5,8.1 C12.5,8.4 12.6,8.7 12.7,8.9 C13.2,9.6 13.9,9.4 14.3,8.8 C14.4,8.6 14.4,8.3 14.4,8.2 C14.4,8.1 14.6,8.1 14.6,8.2 L14.6,9.2 C14.6,9.3 14.7,9.4 14.7,9.5 C14.8,9.6 14.7,9.8 14.5,9.5 Z M15,10.3 C15.2,10.3 15.4,10.7 15.6,11 C15.5,11.1 15.5,12.5 15.5,12.6 C15.6,12.7 15.7,12.8 15.8,12.7 C15.9,12.6 16,12.7 15.9,12.8 C15.8,12.9 15.3,13.3 15.2,13.4 C15,13.3 15,13.1 15,12.9 C14.7,13 14.5,13.1 14.3,13.4 C14,13.3 13.7,13 13.7,12.7 C13.7,12.4 13.9,12.2 14.1,12 L14,11.9 C14,11.7 13.9,11.2 14,11 C14.1,10.7 14.6,10.3 15,10.3 Z M17.5,6.8 C17.4,6.9 17.1,7.1 16.9,7.2 C16.7,7.1 16.6,6.8 16.5,6.8 C16.5,6.8 16.4,6.9 16.3,6.9 L16.3,8.9 L15.7,8.9 L15.7,7.1 C15.7,6.8 15.4,6.8 15.1,6.7 C15.3,6.5 15.6,6.3 15.7,6.1 C16,6.3 16.1,6.3 16.3,6.5 C16.5,6.4 16.8,6.2 16.9,6.1 C17,6.2 17.3,6.5 17.3,6.6 C17.5,6.6 17.6,6.7 17.5,6.8 Z M19.9,8.5 C19.7,8.6 19.4,8.9 19.2,8.9 C18.5,8.9 17.6,8.3 17.7,7.4 C17.8,6.4 18.6,6 19,6 C19.4,6 19.5,6.4 19.7,6.6 C19.4,6.9 18.8,7.4 18.5,7.8 C18.6,8 19,8.6 19.8,8.4 C20.1,8.1 20.2,8.3 19.9,8.5 Z M22.8,6.7 C22.7,6.8 22.4,7 22.1,7.3 C22.2,7.3 22.2,7.3 22.3,7.4 C22.8,7.7 23,8.2 22.5,8.6 C22.2,8.8 21.7,9.1 21.2,9.1 C20.9,9.1 20.2,8.8 20.1,8.7 C20.4,8.4 20.7,8.1 20.9,8 C20.6,7.7 20.2,7.4 20.5,7 C20.7,6.7 21.3,6.2 21.8,6.2 C22.4,6.2 22.6,6.5 22.8,6.7 Z M23.2,9.5 L23.5,9.8 L23.5,10.2 L23.3,10.4 L23,10.4 L22.8,10.2 L22.8,9.8 L23.2,9.5 Z M23.8,7.8 C23,7.8 23.2,7.5 23.4,7.5 C24,7.6 23.9,7.8 23.8,7.8 Z M23.8,8.3 C23,8.2 23.2,8 23.3,8 C24,8 23.9,8.3 23.8,8.3 Z M24.1,12.8 L23.8,13.1 L23.4,13.4 L23,13 L23,11.6 L22.7,11.4 C22.5,11.6 22.4,11.5 22.5,11.3 L23.1,10.7 L23.2,10.7 L23.5,11.1 L23.5,12.6 C23.8,12.8 23.8,12.7 24.1,12.8 Z M21.3,16.4 C21.3,16.1 21.5,15.8 21.7,15.6 C21.6,15.5 21.5,15 21.6,14.8 C21.7,14.6 22.2,14.1 22.6,14.1 C22.8,14.1 23.2,14.6 23.4,14.8 C23.3,14.9 23.5,16.3 23.5,16.4 C23.6,16.5 23.8,16.6 23.9,16.5 C24,16.4 24.1,16.5 24,16.6 L23.5,17.1 C23.3,17 23.1,16.8 22.9,16.6 C22.6,16.7 22.2,16.9 21.9,17.1 C21.4,17 21.3,16.7 21.3,16.4 Z M20.7,12.2 C20.5,11.6 20.9,11.1 21.1,10.9 C21.3,10.8 21.6,10.5 21.8,10.3 C22,10.4 22.2,10.5 22.3,10.6 C22.3,10.7 22.2,10.9 22,10.9 C21.6,10.9 21.4,10.8 21.2,11 C21,11.2 21.2,11.8 21.4,12 C21.6,12.2 22.1,12.4 22.2,12.2 C22.3,11.9 22.5,12.1 22.3,12.3 C22.2,12.4 22,12.8 21.9,13 C21.5,13 21,12.8 20.7,12.2 Z M20.9,16.3 L20.6,16.6 L20.3,16.9 C20.1,16.7 19.9,16.7 19.9,16.5 L19.9,15.2 L19.5,15 C19.3,15.2 19.2,15.1 19.3,14.9 L19.9,14.3 L20.1,14.3 L20.5,14.9 L20.5,16.2 C20.7,16.2 20.6,16.2 20.9,16.3 Z M21.9,15.7 C21.5,16.1 22,16.4 22.1,16.5 C22.3,16.4 22.4,16.4 22.6,16.3 C22.6,16.2 22.5,16.2 22.5,16.1 L22.5,15.7 C22.2,15.8 22.1,15.9 21.9,15.7 Z M22.6,15.7 L22.6,15.1 C22.6,14.9 22.1,14.6 22,14.6 C21.9,14.6 21.9,14.7 21.8,14.9 C21.7,15 21.8,15.3 21.8,15.4 C22.1,15.6 22.3,15.7 22.6,15.7 Z M21.7,7.3 C21.9,7.2 22,7.1 22,7 C21.8,6.8 21.4,6.6 21.2,6.6 C21,6.6 20.7,6.7 20.8,6.9 C20.9,7.1 21.1,7.3 21.3,7.3 L21.7,7.3 Z M21.4,7.8 C21.2,8 20.9,8.2 20.8,8.3 C20.9,8.5 21.5,8.9 21.8,8.7 C22.1,8.6 22.3,8.2 22,8.1 L21.4,7.8 Z M18.4,7.4 L19.1,6.7 C19,6.6 18.7,6.5 18.6,6.2 C18.3,6.5 18.2,6.8 18.4,7.4 Z M15,12.6 L15,12.4 L15,11.9 C14.7,12.1 14.6,12.2 14.4,12 C14,12.4 14.6,12.6 14.8,12.7 C14.8,12.6 14.9,12.6 15,12.6 Z M15,11.7 L15,11.3 C15,11.1 14.7,10.8 14.6,10.8 C14.5,10.8 14.3,11 14.2,11.2 C14.1,11.3 14.1,11.6 14.3,11.8 C14.5,11.9 14.6,11.9 15,11.7 Z M13.1,14.5 C12.3,15 12.4,15.6 12.7,15.9 C12.9,15.8 13.4,15.4 13.6,15.2 C13.4,15.2 13.1,14.8 13.1,14.5 Z M7.9,16.6 L9.8,16.6 L9.8,14.8 L7.9,14.8 L7.9,16.6 Z M7.9,10.1 L9.8,10.1 L9.8,8.3 L7.9,8.3 L7.9,10.1 Z M5.7,13.9 C3.5,13.9 3.5,17.1 5.7,17.1 C7.9,17.1 7.8,13.9 5.7,13.9 Z M5.7,7.4 C3.6,7.4 3.5,10.6 5.7,10.6 C7.8,10.6 7.8,7.4 5.7,7.4 Z M24.7,26.3 C24.6,26 24.4,25.7 24.1,25.6 C22.8,25 20.4,26.3 20.5,24.4 C20.5,24.4 19.6,25 20,25.7 C20.8,27.3 23.3,25.4 24.7,26.3 Z M13.4,41.6 C12.7,42.3 12.5,42.3 12.5,42.6 C12.7,43 13,43.3 13.3,43.7 C13.7,44 13.9,44.3 13.6,43.4 C13.3,42.8 13.4,42.3 13.4,41.6 Z M8.5,28.3 C8.5,29.8 4.5,31.9 2.7,32.8 C5.4,33.7 8,31.2 7.6,31.8 C7.2,32.5 3.9,35.4 2.5,36.9 C3.6,37.2 4.6,36.3 5.5,35.6 C6.4,34.8 7.9,33 7.6,33.9 C5.2,36.9 3.3,43 4.5,43.4 C5.2,42 8,35 8.1,35 C8.3,35 7.9,36.9 7.8,38.1 C7.7,40.8 7.6,42 8.2,44.7 C8.5,44.3 8.8,44.3 9.3,44.3 C9.4,44 9.3,44.1 9,43.7 C8.2,42.7 9.1,41.3 8.7,40.5 C8.4,39.8 8.2,40.4 8.1,39.6 C8.3,39.4 8.9,39.3 9.1,39.3 C9.3,36.6 10.3,35.2 9.9,36.9 C9.7,37.8 9.5,39.2 9.6,39.3 C9.7,39.3 9.7,39.3 9.8,39.4 C9.9,39.4 14.4,31.9 11.9,37.1 C11.6,37.8 10.2,39.6 10.2,39.6 C10.6,40 10.9,40.4 10.9,40.6 C10.9,40.7 17,32.6 12.9,39.1 C12.6,39.5 11.4,40.8 11.1,41.2 L11.2,42.7 C11.8,42.3 12.7,41.4 13.2,40.8 C13.1,40 13.3,40.1 13.4,39.3 C13.6,39.2 13.8,39.5 14.2,39.8 C14.3,39.9 18.4,32.9 15.9,38.2 C15.5,39 14.6,40.1 14.5,40.1 C14.7,40.3 14.9,40.9 15.2,41.5 C15.2,41.5 20.6,33.7 17.3,39.6 C17,40.1 15.4,42 15.4,42.1 C15.8,43.1 16.1,44 16.1,44 C16,43.2 15.8,41.7 17.4,40.5 C17.6,41.9 18,41.9 18.4,42.3 C18.6,42.5 19,43.3 19,42.6 C19.1,40.7 18.5,40.7 18,39.9 C17.9,39.7 17.9,39.3 18,39.3 C21.9,39.4 21.8,43.1 22.4,43.1 C22.1,42.2 22,41.3 22.4,40.5 C21.4,39.8 21.6,38.5 21.8,38 C20.6,36.8 21.3,34.2 21.9,33.7 C21.1,32.6 22.1,31.9 21.9,31.2 C21.6,28.8 19.5,29.5 19,27.3 C18.7,27.7 18.1,29.1 18.3,29.5 C18.6,30 19.3,30.1 19.4,30.4 C19.4,30.6 19.5,31 19.3,31.1 C18.9,31.2 18.6,30.8 18.2,30.6 C17.4,30.3 15.4,31.6 15.3,30.4 C15.2,29.6 15.6,30.2 15.5,29.5 C15.5,28.8 15.1,29.3 15.1,28.3 C15.1,27.6 15.9,27.4 16,27.1 C16.1,26.4 17.4,28.1 18.1,26.3 C17.7,26.4 16.8,26.1 16.9,25.6 C17.1,24.5 17.1,21.8 14.6,22.4 C13.7,22.6 11.2,23.9 10.8,22.5 C9.9,24.1 11.7,23.8 12.2,23.8 C12,24 11.7,24.2 11,24 C9.6,24.9 4.4,28.2 2.9,29.1 C5.4,30.3 8.5,28.3 8.5,28.3 Z M10,46.3 C9.5,46.1 9,46 8.5,45.6 C8.8,46.7 9,47.6 9.6,48.7 C10,49.4 10.6,47.9 10,46.3 Z" id="Shape"></path>
        </g>
    </g>
</svg>